<?xml version="1.0" encoding="UTF-8" standalone="no"?>
<!-- Created with Inkscape (http://www.inkscape.org/) -->

<svg
   xmlns:dc="http://purl.org/dc/elements/1.1/"
   xmlns:cc="http://creativecommons.org/ns#"
   xmlns:rdf="http://www.w3.org/1999/02/22-rdf-syntax-ns#"
   xmlns:svg="http://www.w3.org/2000/svg"
   xmlns="http://www.w3.org/2000/svg"
   xmlns:sodipodi="http://sodipodi.sourceforge.net/DTD/sodipodi-0.dtd"
   xmlns:inkscape="http://www.inkscape.org/namespaces/inkscape"
   version="1.1"
   id="svg834"
   xml:space="preserve"
   width="288"
   height="192"
   viewBox="0 0 288 192"
   sodipodi:docname="utcs_tesselated_longhorn.svg"
   inkscape:version="0.92.3 (2405546, 2018-03-11)"
   inkscape:export-filename="/home/joydeepb/projects/ut-amrl.github.io/assets/images/utcs_tesselated_longhorn.png"
   inkscape:export-xdpi="600"
   inkscape:export-ydpi="600"><metadata
     id="metadata840"><rdf:RDF><cc:Work
         rdf:about=""><dc:format>image/svg+xml</dc:format><dc:type
           rdf:resource="http://purl.org/dc/dcmitype/StillImage" /><dc:title></dc:title></cc:Work></rdf:RDF></metadata><defs
     id="defs838"><clipPath
       clipPathUnits="userSpaceOnUse"
       id="clipPath850"><path
         d="M 0,144 H 216 V 0 H 0 Z"
         id="path848"
         inkscape:connector-curvature="0" /></clipPath><clipPath
       clipPathUnits="userSpaceOnUse"
       id="clipPath866"><path
         d="M 0,144 H 216 V 0 H 0 Z"
         id="path864"
         inkscape:connector-curvature="0" /></clipPath><clipPath
       id="clipPath979"
       clipPathUnits="userSpaceOnUse"><path
         inkscape:connector-curvature="0"
         id="path977"
         d="M 0,144 H 216 V 0 H 0 Z" /></clipPath><clipPath
       id="clipPath995"
       clipPathUnits="userSpaceOnUse"><path
         inkscape:connector-curvature="0"
         id="path993"
         d="M 0,144 H 216 V 0 H 0 Z" /></clipPath></defs><sodipodi:namedview
     pagecolor="#ffffff"
     bordercolor="#666666"
     borderopacity="1"
     objecttolerance="10"
     gridtolerance="10"
     guidetolerance="10"
     inkscape:pageopacity="0"
     inkscape:pageshadow="2"
     inkscape:window-width="2558"
     inkscape:window-height="1418"
     id="namedview836"
     showgrid="false"
     inkscape:zoom="3.1536458"
     inkscape:cx="104.87677"
     inkscape:cy="106.31965"
     inkscape:window-x="0"
     inkscape:window-y="20"
     inkscape:window-maximized="0"
     inkscape:current-layer="g842" /><g
     id="g842"
     inkscape:groupmode="layer"
     inkscape:label="utcs_tesselated_longhorn"
     transform="matrix(1.3333333,0,0,-1.3333333,0,192)"><g
       id="g856"
       transform="translate(136.2314,79.4329)"
       style="stroke-width:1.13385829;stroke-miterlimit:4;stroke-dasharray:none;stroke:#d15e15;stroke-opacity:1"><path
         d="M 0,0 21.656,-2.541 9.614,-6.027 Z m -5.117,-19.152 -0.789,2.462 -2.735,8.529 3.453,-1.638 3.053,-1.447 z m -2.494,-6.613 -2.88,6.026 4.833,-0.85 z m -10.573,-40.249 2.882,12.159 0.511,2.153 2.345,-7.181 z m -9.686,-2.599 v 3.033 l 7.031,-1.861 z m -0.723,3.033 v -3.033 l -7.032,1.172 z m -13.308,13.174 3.558,-13.53 -5.675,7.053 z m -6.439,25.287 9.694,-0.144 -7.38,-5.989 z m -2.465,6.53 4.833,0.85 -2.88,-6.026 z m -0.47,10.79 3.452,1.638 -2.734,-8.529 -0.789,-2.462 -2.983,7.906 z M -78.12,-2.541 -56.464,0 -66.077,-6.027 Z m -36.965,37.349 5.824,6.892 21.55,-20.713 7.855,-7.551 z m -6.686,6.847 5.406,-6.702 -13.386,-3.205 z m 6.103,-6.354 -5.286,6.552 h 10.825 z m 42.212,-12.694 -3.738,-10.658 -17.945,17.248 -11.831,11.369 z m 44.863,-4.523 -12.32,9.056 h 12.32 z M 38.677,29.197 20.73,11.949 16.992,22.607 50.507,40.566 Z m 25.815,12.656 -5.286,-6.552 -5.54,6.552 z m 8.796,-10.105 -13.386,3.205 5.405,6.702 z M 31.247,20.987 52.798,41.7 58.622,34.808 23.392,13.436 Z M -1.418,10.385 -6.286,24.592 19.084,11.589 Z M 22.083,3.639 0.982,9.63 15.388,10.041 Z M -8.654,-6.964 -2.032,8.19 -2.077,0.613 -2.119,-6.363 Z m 0.894,-0.732 5.65,0.517 0.075,-3.231 z m -4.364,-30.024 -4.822,8.228 -0.583,0.993 6.802,-5.52 z m -31.928,-3.944 2,-8.435 -0.161,-0.905 -1.856,-5.676 z m 5.118,13.165 -0.582,-0.993 -4.824,-8.228 -1.396,3.701 z m -15.419,21.32 5.649,-0.517 -5.723,-2.714 z m -0.078,15.369 6.621,-15.154 -6.535,0.601 -0.041,6.976 z m -3.016,1.44 -21.098,-5.991 6.695,6.402 z m 7.269,14.962 -4.868,-14.207 -20.502,1.204 z m -26.2,-12.535 3.638,10.373 21.097,2.305 z m 24.978,6.703 2.15,6.273 5.768,1.694 z m 23.53,-0.676 v 9.056 h 12.32 z m 22.807,0.676 -7.919,7.967 5.769,-1.694 z m 24.977,-6.703 -24.736,12.678 21.1,-2.305 z m 0.677,-8.835 h -21.89 v 6.22 z M -1.345,0.976 -1.312,2.329 14.262,-0.854 Z m -12.78,-27.37 -3.816,-0.056 6.682,6.598 3.085,-6.455 z m -0.666,-22.152 -1.819,10.493 -1.603,9.241 5.77,-9.836 -1.711,-7.208 z m -0.526,-2.217 -3.733,-15.747 -8.537,15.747 z m -13.579,-0.036 -8.519,-15.711 -3.564,15.036 z m -15.123,12.151 5.754,9.811 -3.465,-19.459 -0.579,2.44 z m -11.134,40.977 0.035,-1.353 -15.608,-1.83 z m -0.011,0.893 h -21.891 l 21.891,6.22 z m 12.675,23.415 v -8.898 h -8.842 l 6.236,6.275 z m 13.043,-8.898 h -12.32 v 9.057 z m 14.749,0 h -12.32 l 12.32,9.057 z m 9.565,0 h -8.843 v 8.898 l 2.605,-2.623 z m -3.073,-21.831 4.106,20.037 2.045,-5.961 z m -3.242,-14.662 -15.448,2.458 17.161,8.2 -1.461,-9.088 z m -3.982,-30.372 -8.25,9.293 4.624,11.62 1.884,-10.858 z m -0.29,-0.822 h -11.958 l 3.685,9.319 z m -31.01,41.852 17.159,-8.2 -15.445,-2.458 -0.254,1.57 z m -7.679,18.08 2.043,5.961 4.106,-20.037 z m 27.207,-27.055 15.217,-2.416 -6.917,-6.829 z m -5.581,-22.768 -8.345,-9.819 3.717,21.445 0.513,-1.288 z m 3.521,22.768 -8.3,-9.245 -6.918,6.829 z m 0.668,21.05 h -8.223 l 8.223,12.146 z m 11.777,-2.22 -1.566,1.784 13.604,12.706 -4.688,-22.864 z m -8.545,-12.947 6.536,14.078 8.933,-10.176 -17.552,-8.391 z m -2.509,-3.649 V 3.166 h 8.356 l -0.903,-1.944 z m 0,-2.633 7.72,-8.6 -7.72,2.38 z m 0,-7.063 8.153,-2.515 -8.153,-7.003 z m -0.723,0 v -9.518 l -8.154,7.003 z m 0,0.843 -7.719,-2.38 7.719,8.6 z m 0.723,39.815 8.224,-12.146 H -27.87 Z M -36.949,3.166 h 8.356 v -18.003 l -7.455,16.059 z m -0.689,-0.276 6.536,-14.078 2.082,-4.489 -17.552,8.391 z m -9.361,-9.505 -4.686,22.864 13.604,-12.706 -1.566,-1.784 z m 22.561,-33.143 v -10e-4 l -0.019,-0.043 -3.413,-8.578 v 13.304 l 2.16,1.856 5.882,5.054 -1.034,-2.598 z m -8.027,-0.885 3.689,-9.336 -12.201,-0.679 z m 0.442,0.884 v 0 10e-4 l -3.579,8.994 -1.033,2.598 5.884,-5.054 2.158,-1.856 V -48.38 l -3.413,8.578 z m 17.687,56.682 h 9.149 l -7.653,-7.147 -6.018,-5.621 -8.644,12.768 z m -27.79,0 h 13.164 l -8.644,-12.768 -6.018,5.621 -7.651,7.147 z m 13.533,-68.728 v -12.939 l -8.195,-2.169 z m 0.723,0 8.195,-15.108 -8.195,2.169 z m -51.792,52.979 0.045,1.234 h 20.805 l -20.966,-4.29 z m 28.891,-20.934 3.452,10.772 1.342,-8.355 0.248,-1.53 -0.611,-0.107 z m 2.481,-6.547 3.083,6.455 6.686,-6.598 -3.818,0.056 z m 38.168,7.327 -0.611,0.107 0.248,1.53 1.34,8.355 3.453,-10.772 z M 23.315,-1.882 2.349,2.408 h 20.805 l 0.045,-1.234 z m -37.785,-48.456 2.058,8.674 0.018,-15.016 z m 4.033,17.086 -7.38,5.989 9.694,0.144 z m 31.061,44.265 0.078,-0.024 0.049,-0.08 38.514,23.366 14.967,-3.584 0.344,0.67 -9.001,11.171 H 65.36 l -0.053,0.134 H 52.824 l -0.042,-0.107 -0.076,0.004 -0.037,0.064 -36.201,-19.401 -23.348,2.55 -7.365,2.164 -0.057,-0.119 -0.034,0.134 h -13.895 -13.895 l -0.036,-0.134 -0.056,0.119 -7.365,-2.164 -23.347,-2.55 -36.202,19.401 -0.036,-0.064 -0.078,-0.004 -0.042,0.107 h -12.483 l -0.052,-0.134 h -0.216 l -9,-11.171 0.343,-0.67 14.967,3.584 38.515,-23.366 0.048,0.08 0.08,0.024 0.023,-0.151 4.668,-0.272 -7.803,-7.464 -0.126,-0.294 -0.196,-5.188 0.272,-0.412 14.13,-4.087 0.266,0.04 10.747,6.736 0.039,-6.657 -0.098,-4.285 0.069,-0.053 -0.041,-0.114 3.485,-9.238 2.428,-6.435 2.707,-7.178 1.745,-4.621 -0.023,-20.311 0.047,-0.01 0.047,-0.264 6.887,-8.561 0.191,0.117 h 0.004 l 0.01,-0.017 0.008,-0.232 9.315,-1.549 0.054,0.051 0.051,-0.051 9.316,1.549 0.009,0.232 0.011,0.018 0.195,-0.118 6.886,8.561 0.045,0.264 0.049,0.01 -0.022,20.311 1.744,4.621 2.707,7.178 2.428,6.435 3.484,9.238 -0.042,0.114 0.071,0.053 -0.098,4.285 0.039,6.657 10.747,-6.736 0.264,-0.04 14.13,4.087 0.274,0.412 -0.197,5.188 -0.126,0.294 -7.802,7.464 4.666,0.272 z"
         style="fill:#d25f15;fill-opacity:1;fill-rule:nonzero;stroke:#d15e15;stroke-width:1.13385829;stroke-miterlimit:4;stroke-dasharray:none;stroke-opacity:1"
         id="path858"
         inkscape:connector-curvature="0" /></g><g
       id="g989"
       transform="translate(-5.9751871,-2.5565635)"><g
         id="g991"
         clip-path="url(#clipPath995)"><g
           id="g997"
           transform="translate(81.479,124.9954)"><path
             d="m 0,0 -0.319,-1.884 c -0.664,-0.339 -1.953,-0.863 -2.985,-1.019 -2.283,0 -4.42,1.647 -4.42,4.693 0,3.047 1.903,4.537 4.641,4.929 1.278,0 2.407,-0.614 2.935,-1.02 V 3.935 H -0.823 L -1.216,5.15 c -0.331,0.38 -1.032,0.89 -2.038,0.89 -1.818,0 -3.058,-1.374 -3.058,-3.936 0,-2.118 1.216,-4.288 3.364,-4.288 0.738,0 1.278,0.433 1.609,0.732 L -0.676,0 Z"
             style="fill:#d25f15;fill-opacity:1;fill-rule:nonzero;stroke:none"
             id="path999"
             inkscape:connector-curvature="0" /></g><g
           id="g1001"
           transform="translate(85.3838,122.7727)"><path
             d="m 0,0 c 0.982,0 1.486,1.072 1.486,2.484 0,1.661 -0.75,2.771 -1.818,2.771 -0.994,0 -1.485,-1.071 -1.485,-2.498 C -1.817,1.269 -1.093,0 0,0 m 2.713,2.757 c 0,-1.946 -1.117,-3.071 -3.021,-3.398 -1.632,0 -2.737,1.346 -2.737,3.125 0,1.96 1.117,3.072 3.02,3.412 1.633,0 2.738,-1.362 2.738,-3.139"
             style="fill:#d25f15;fill-opacity:1;fill-rule:nonzero;stroke:none"
             id="path1003"
             inkscape:connector-curvature="0" /></g><g
           id="g1005"
           transform="translate(97.2451,122.3538)"><path
             d="m 0,0 -1.166,-0.039 -0.062,0.458 0.614,0.13 v 3.738 c 0,0.681 -0.269,0.983 -0.712,0.983 -0.368,0 -0.822,-0.263 -1.252,-0.589 L -2.947,4.404 V 0.549 L -2.395,0.419 -2.456,-0.039 -3.5,0 l -1.105,-0.039 -0.061,0.458 0.553,0.13 v 3.738 c 0,0.681 -0.27,0.983 -0.712,0.983 -0.369,0 -0.823,-0.263 -1.253,-0.589 L -6.446,4.404 V 0.549 L -5.832,0.419 -5.894,-0.039 -6.999,0 l -1.412,-0.039 -0.062,0.458 0.86,0.13 v 4.772 l -0.86,-0.078 -0.061,0.458 1.473,0.403 0.528,0.041 0.062,-1.084 1.695,1.253 c 1.191,0 1.633,-0.378 1.768,-1.28 l 1.731,1.28 c 1.572,0 1.83,-0.627 1.83,-2.287 V 0.549 L 1.474,0.419 1.413,-0.039 Z"
             style="fill:#d25f15;fill-opacity:1;fill-rule:nonzero;stroke:none"
             id="path1007"
             inkscape:connector-curvature="0" /></g><g
           id="g1009"
           transform="translate(102.7466,127.6878)"><path
             d="m 0,0 c -0.332,0 -0.724,-0.235 -1.179,-0.601 l -0.368,-0.301 v -3.282 c 0.282,-0.457 0.785,-0.719 1.339,-0.719 0.884,0 1.485,0.929 1.485,2.433 C 1.277,-0.941 0.737,0 0,0 m -1.547,-5.281 v -2.51 l 1.289,-0.131 -0.061,-0.458 -1.781,0.039 -1.411,-0.039 -0.062,0.458 0.859,0.131 V 0 l -0.859,-0.079 -0.061,0.446 1.473,0.404 0.528,0.04 0.061,-1.085 L 0,0.98 c 1.584,0 2.505,-1.15 2.505,-3.045 0,-2.223 -1.252,-3.23 -3.082,-3.491 -0.344,0 -0.688,0.104 -0.97,0.275"
             style="fill:#d25f15;fill-opacity:1;fill-rule:nonzero;stroke:none"
             id="path1011"
             inkscape:connector-curvature="0" /></g><g
           id="g1013"
           transform="translate(111.4287,124.0266)"><path
             d="m 0,0 c 0,-0.561 0.061,-0.77 0.147,-0.98 h 0.615 l 0.049,-0.457 -1.584,-0.328 -0.344,1.06 -1.781,-1.19 c -1.621,0 -1.891,0.614 -1.891,2.129 v 3.414 l -0.86,-0.066 -0.061,0.511 1.474,0.339 0.613,0.053 V 0.131 c 0,-0.68 0.27,-0.98 0.872,-0.98 0.381,0 0.872,0.328 1.338,0.654 l 0.246,0.169 V 3.648 L -1.903,3.582 -1.965,4.093 -0.614,4.432 0,4.485 Z"
             style="fill:#d25f15;fill-opacity:1;fill-rule:nonzero;stroke:none"
             id="path1015"
             inkscape:connector-curvature="0" /></g><g
           id="g1017"
           transform="translate(112.5459,127.7268)"><path
             d="M 0,0 V 0.224 L 0.43,0.68 h 0.798 v 0.85 l 0.798,0.849 h 0.32 V 0.589 H 4.199 V 0 H 2.358 v -3.831 c 0,-0.378 0.134,-0.784 0.651,-0.784 0.355,0 0.626,0.133 0.97,0.315 L 4.187,-4.746 2.751,-5.595 c -1.376,0 -1.56,0.523 -1.56,1.699 V 0 Z"
             style="fill:#d25f15;fill-opacity:1;fill-rule:nonzero;stroke:none"
             id="path1019"
             inkscape:connector-curvature="0" /></g><g
           id="g1021"
           transform="translate(120.5898,126.3157)"><path
             d="m 0,0 c 0,1.006 -0.186,1.699 -1.131,1.699 -0.749,0 -1.227,-0.746 -1.326,-1.83 z m -2.469,-0.655 c 0,-1.49 0.749,-2.549 2.038,-2.549 0.492,0 1.08,0.249 1.535,0.55 l 0.197,-0.497 c -0.589,-0.432 -1.363,-0.797 -2.149,-1.033 -1.485,0 -2.824,1.125 -2.824,3.177 0,1.934 1.093,2.967 2.776,3.36 1.62,0 2.172,-1.084 2.172,-2.458 v -0.55 z"
             style="fill:#d25f15;fill-opacity:1;fill-rule:nonzero;stroke:none"
             id="path1023"
             inkscape:connector-curvature="0" /></g><g
           id="g1025"
           transform="translate(124.4941,126.7727)"><path
             d="M 0,0 1.399,1.83 H 2.382 V 0.522 H 1.474 C 1.179,0.457 0.639,0.026 0.307,-0.405 L 0.062,-0.719 v -3.112 l 1.289,-0.131 -0.062,-0.496 -1.78,0.039 -1.376,-0.039 -0.061,0.458 0.86,0.13 v 4.772 l -0.86,-0.078 -0.061,0.458 1.473,0.404 0.492,0.04 z"
             style="fill:#d25f15;fill-opacity:1;fill-rule:nonzero;stroke:none"
             id="path1027"
             inkscape:connector-curvature="0" /></g><g
           id="g1029"
           transform="translate(131.7881,123.635)"><path
             d="m 0,0 c 0.369,-0.483 1.044,-0.824 1.731,-0.824 1.056,0 1.67,0.707 1.67,1.661 0,0.889 -0.54,1.397 -1.277,1.738 L 0.639,3.268 c -0.884,0.404 -1.61,1.006 -1.61,2.171 0,1.424 1.229,2.26 2.935,2.64 0.774,0 1.634,-0.274 2.248,-0.758 V 5.556 H 3.598 L 3.241,6.746 C 2.923,7.1 2.529,7.387 1.792,7.387 0.822,7.387 0.246,6.824 0.246,5.949 0.246,5.23 0.725,4.784 1.399,4.47 L 2.813,3.817 C 3.782,3.372 4.629,2.719 4.616,1.386 c 0,-1.228 -0.785,-2.418 -3.094,-2.929 -1.128,0 -1.89,0.339 -2.541,0.889 L -1.29,1.111 h 0.86 z"
             style="fill:#d25f15;fill-opacity:1;fill-rule:nonzero;stroke:none"
             id="path1031"
             inkscape:connector-curvature="0" /></g><g
           id="g1033"
           transform="translate(140.8262,127.7669)"><path
             d="m 0,0 c -0.196,0.155 -0.381,0.208 -0.712,0.208 -0.835,0 -1.475,-0.993 -1.475,-2.419 0,-1.398 0.713,-2.444 1.917,-2.444 0.465,0 0.957,0.249 1.387,0.549 l 0.196,-0.497 c -0.564,-0.431 -1.191,-0.757 -2,-1.032 -1.572,0 -2.739,1.098 -2.739,3.112 0,2.051 1.412,3.032 2.922,3.424 0.565,0 1.326,-0.301 1.695,-0.653 V -1.06 H 0.282 Z"
             style="fill:#d25f15;fill-opacity:1;fill-rule:nonzero;stroke:none"
             id="path1035"
             inkscape:connector-curvature="0" /></g><g
           id="g1037"
           transform="translate(143.7354,131.3469)"><path
             d="M 0,0 0.884,0.067 1.229,0 1.29,-0.731 1.154,-1.358 0.283,-1.437 -0.049,-1.358 -0.122,-0.626 Z M 0.614,-8.993 -0.797,-9.032 -0.858,-8.574 0,-8.444 v 4.772 l -0.858,-0.078 -0.063,0.458 1.474,0.403 0.614,0.054 v -5.609 l 0.922,-0.13 -0.063,-0.458 z"
             style="fill:#d25f15;fill-opacity:1;fill-rule:nonzero;stroke:none"
             id="path1039"
             inkscape:connector-curvature="0" /></g><g
           id="g1041"
           transform="translate(149.9863,126.3157)"><path
             d="m 0,0 c 0,1.006 -0.185,1.699 -1.13,1.699 -0.749,0 -1.227,-0.746 -1.326,-1.83 z m -2.468,-0.655 c 0,-1.49 0.748,-2.549 2.038,-2.549 0.492,0 1.08,0.249 1.535,0.55 l 0.196,-0.497 c -0.589,-0.432 -1.363,-0.797 -2.149,-1.033 -1.485,0 -2.824,1.125 -2.824,3.177 0,1.934 1.093,2.967 2.776,3.36 1.62,0 2.173,-1.084 2.173,-2.458 v -0.55 z"
             style="fill:#d25f15;fill-opacity:1;fill-rule:nonzero;stroke:none"
             id="path1043"
             inkscape:connector-curvature="0" /></g><g
           id="g1045"
           transform="translate(153.4365,122.3538)"><path
             d="m 0,0 -1.411,-0.039 -0.063,0.458 0.86,0.13 v 4.772 l -0.86,-0.078 -0.06,0.458 1.472,0.403 0.529,0.041 0.061,-1.099 1.818,1.268 c 1.571,0 1.829,-0.563 1.829,-2.13 V 0.549 L 5.108,0.419 5.047,-0.039 3.635,0 2.456,-0.039 2.395,0.419 3.009,0.549 V 4.287 C 3.009,4.968 2.727,5.27 2.198,5.27 1.769,5.27 1.339,4.979 0.921,4.681 L 0.553,4.419 V 0.549 L 1.228,0.419 1.167,-0.039 Z"
             style="fill:#d25f15;fill-opacity:1;fill-rule:nonzero;stroke:none"
             id="path1047"
             inkscape:connector-curvature="0" /></g><g
           id="g1049"
           transform="translate(162.4258,127.7669)"><path
             d="m 0,0 c -0.197,0.155 -0.381,0.208 -0.713,0.208 -0.835,0 -1.473,-0.993 -1.473,-2.419 0,-1.398 0.711,-2.444 1.915,-2.444 0.467,0 0.958,0.249 1.388,0.549 L 1.313,-4.603 C 0.749,-5.034 0.122,-5.36 -0.688,-5.635 c -1.572,0 -2.739,1.098 -2.739,3.112 0,2.051 1.412,3.032 2.924,3.424 0.565,0 1.325,-0.301 1.693,-0.653 V -1.06 H 0.282 Z"
             style="fill:#d25f15;fill-opacity:1;fill-rule:nonzero;stroke:none"
             id="path1051"
             inkscape:connector-curvature="0" /></g><g
           id="g1053"
           transform="translate(168.1465,126.3157)"><path
             d="m 0,0 c 0,1.006 -0.184,1.699 -1.129,1.699 -0.749,0 -1.227,-0.746 -1.326,-1.83 z m -2.468,-0.655 c 0,-1.49 0.75,-2.549 2.039,-2.549 0.491,0 1.08,0.249 1.535,0.55 l 0.196,-0.497 c -0.589,-0.432 -1.363,-0.797 -2.15,-1.033 -1.484,0 -2.823,1.125 -2.823,3.177 0,1.934 1.094,2.967 2.775,3.36 1.621,0 2.174,-1.084 2.174,-2.458 v -0.55 z"
             style="fill:#d25f15;fill-opacity:1;fill-rule:nonzero;stroke:none"
             id="path1055"
             inkscape:connector-curvature="0" /></g><path
           d="m 59.5,134.789 h 0.019 v 0.007 H 59.5 Z"
           style="fill:#d25f15;fill-opacity:1;fill-rule:nonzero;stroke:none"
           id="path1057"
           inkscape:connector-curvature="0" /><g
           id="g1059"
           transform="translate(63.8994,138.7249)"><path
             d="m 0,0 v 0.629 h -0.365 v 1.075 h -0.246 c -0.522,0 -1.041,0.082 -1.543,0.16 -0.458,0.072 -0.891,0.14 -1.292,0.14 -0.376,0 -0.686,-0.063 -0.944,-0.192 -0.258,0.129 -0.569,0.192 -0.945,0.192 -0.4,0 -0.833,-0.068 -1.292,-0.14 C -7.129,1.786 -7.648,1.704 -8.17,1.704 H -8.417 V 0.629 H -8.782 V 0 h 0.365 v -0.854 h -0.36 v -0.63 h 0.36 v -1.167 h 0.247 c 0.558,0 1.105,0.089 1.634,0.176 0.447,0.074 0.869,0.143 1.229,0.143 0.291,0 0.509,-0.044 0.679,-0.138 v -10e-4 h 0.475 v 10e-4 c 0.17,0.094 0.388,0.138 0.678,0.138 0.361,0 0.784,-0.069 1.23,-0.143 0.529,-0.087 1.077,-0.176 1.634,-0.176 h 0.246 v 1.167 h 0.361 v 0.63 H -0.365 V 0 Z m -6.611,-1.956 c -0.41,-0.067 -0.831,-0.135 -1.249,-0.16 l 0.111,3.312 c 0.409,0.029 0.807,0.089 1.194,0.148 0.44,0.07 0.856,0.135 1.22,0.135 0.283,0 0.505,-0.039 0.689,-0.121 V 0.899 l -0.093,-2.771 c -0.167,0.043 -0.353,0.065 -0.568,0.065 -0.398,0 -0.839,-0.072 -1.304,-0.149 m 4.441,0 c -0.465,0.077 -0.906,0.149 -1.305,0.149 -0.213,0 -0.4,-0.022 -0.567,-0.065 l -0.093,2.771 v 0.459 c 0.183,0.082 0.406,0.121 0.689,0.121 0.364,0 0.78,-0.065 1.22,-0.135 0.388,-0.059 0.786,-0.119 1.194,-0.148 l 0.111,-3.312 c -0.418,0.025 -0.839,0.093 -1.249,0.16"
             style="fill:#d25f15;fill-opacity:1;fill-rule:nonzero;stroke:none"
             id="path1061"
             inkscape:connector-curvature="0" /></g><g
           id="g1063"
           transform="translate(57.3555,139.594)"><path
             d="M 0,0 C -0.024,-0.004 -0.048,-0.008 -0.073,-0.012 -0.305,-0.048 -0.54,-0.085 -0.778,-0.113 l -0.014,-0.424 c 0.264,0.03 0.521,0.07 0.776,0.11 0.006,0.001 0.011,0.002 0.016,0.004 z"
             style="fill:#d25f15;fill-opacity:1;fill-rule:nonzero;stroke:none"
             id="path1065"
             inkscape:connector-curvature="0" /></g><g
           id="g1067"
           transform="translate(57.6509,139.6389)"><path
             d="m 0,0 v -0.424 c 0.42,0.062 0.805,0.107 1.139,0.077 L 1.152,0.071 C 0.796,0.1 0.406,0.059 0,0"
             style="fill:#d25f15;fill-opacity:1;fill-rule:nonzero;stroke:none"
             id="path1069"
             inkscape:connector-curvature="0" /></g><g
           id="g1071"
           transform="translate(57.3555,137.6721)"><path
             d="m 0,0 c -0.024,-0.004 -0.048,-0.007 -0.073,-0.012 -0.253,-0.039 -0.51,-0.079 -0.77,-0.108 l -0.014,-0.425 c 0.285,0.031 0.566,0.075 0.841,0.118 0.006,0.001 0.011,0.002 0.016,0.003 z"
             style="fill:#d25f15;fill-opacity:1;fill-rule:nonzero;stroke:none"
             id="path1073"
             inkscape:connector-curvature="0" /></g><g
           id="g1075"
           transform="translate(57.6509,137.7171)"><path
             d="m 0,0 v -0.423 c 0.393,0.057 0.755,0.101 1.074,0.081 L 1.088,0.076 C 0.749,0.096 0.382,0.055 0,0"
             style="fill:#d25f15;fill-opacity:1;fill-rule:nonzero;stroke:none"
             id="path1077"
             inkscape:connector-curvature="0" /></g><g
           id="g1079"
           transform="translate(57.2944,138.6233)"><path
             d="m 0,0 v -0.425 c 0.015,0.003 0.031,0.005 0.045,0.007 0.528,0.083 1.01,0.158 1.417,0.13 L 1.477,0.129 C 1.025,0.158 0.521,0.082 0,0"
             style="fill:#d25f15;fill-opacity:1;fill-rule:nonzero;stroke:none"
             id="path1081"
             inkscape:connector-curvature="0" /></g><g
           id="g1083"
           transform="translate(56.9985,138.5774)"><path
             d="m 0,0 c -0.15,-0.022 -0.301,-0.043 -0.453,-0.062 l -0.015,-0.424 c 0.158,0.017 0.314,0.04 0.468,0.063 z"
             style="fill:#d25f15;fill-opacity:1;fill-rule:nonzero;stroke:none"
             id="path1085"
             inkscape:connector-curvature="0" /></g><g
           id="g1087"
           transform="translate(61.1875,139.6633)"><path
             d="m 0,0 c -0.341,0.044 -0.67,0.072 -0.973,0.047 l 0.015,-0.418 C -0.673,-0.347 -0.351,-0.376 0,-0.423 Z"
             style="fill:#d25f15;fill-opacity:1;fill-rule:nonzero;stroke:none"
             id="path1089"
             inkscape:connector-curvature="0" /></g><g
           id="g1091"
           transform="translate(62.4404,139.4807)"><path
             d="M 0,0 C -0.238,0.028 -0.474,0.065 -0.706,0.102 -0.79,0.115 -0.875,0.128 -0.958,0.141 v -0.424 c 0.064,-0.01 0.13,-0.02 0.196,-0.03 0.254,-0.041 0.513,-0.081 0.777,-0.111 z"
             style="fill:#d25f15;fill-opacity:1;fill-rule:nonzero;stroke:none"
             id="path1093"
             inkscape:connector-curvature="0" /></g><g
           id="g1095"
           transform="translate(61.106,138.7132)"><path
             d="m 0,0 c -0.3,0.035 -0.589,0.057 -0.859,0.039 l 0.014,-0.417 C -0.59,-0.36 -0.307,-0.382 0,-0.422 Z"
             style="fill:#d25f15;fill-opacity:1;fill-rule:nonzero;stroke:none"
             id="path1097"
             inkscape:connector-curvature="0" /></g><g
           id="g1099"
           transform="translate(62.4731,138.5149)"><path
             d="M 0,0 C -0.249,0.029 -0.496,0.067 -0.738,0.107 -0.85,0.125 -0.961,0.142 -1.072,0.158 v -0.425 c 0.091,-0.012 0.183,-0.027 0.277,-0.043 0.265,-0.04 0.535,-0.082 0.809,-0.114 z"
             style="fill:#d25f15;fill-opacity:1;fill-rule:nonzero;stroke:none"
             id="path1101"
             inkscape:connector-curvature="0" /></g><g
           id="g1103"
           transform="translate(61.6968,137.2424)"><path
             d="M 0,0 C 0.269,-0.041 0.544,-0.085 0.823,-0.115 L 0.809,0.309 C 0.548,0.339 0.292,0.379 0.038,0.418 0.026,0.421 0.013,0.423 0,0.424 Z"
             style="fill:#d25f15;fill-opacity:1;fill-rule:nonzero;stroke:none"
             id="path1105"
             inkscape:connector-curvature="0" /></g><g
           id="g1107"
           transform="translate(61.4014,137.7112)"><path
             d="m 0,0 c -0.395,0.059 -0.773,0.102 -1.123,0.082 l 0.015,-0.417 C -0.78,-0.315 -0.406,-0.362 0,-0.424 Z"
             style="fill:#d25f15;fill-opacity:1;fill-rule:nonzero;stroke:none"
             id="path1109"
             inkscape:connector-curvature="0" /></g><g
           id="g1111"
           transform="translate(55.8711,131.4192)"><path
             d="M 0,0 V 0 L 2.229,-1.727 1.37,-4.536 c 10e-4,-0.007 0.003,-0.011 0.007,-0.015 0.004,-0.004 0.009,-0.004 0.014,-0.004 l 2.247,1.742 2.246,-1.74 c 0.005,-0.002 0.011,0 0.014,0.002 0.007,0.006 0.009,0.017 0.005,0.027 l -0.855,2.798 2.229,1.725 V 0 C 7.287,0.005 7.293,0.017 7.29,0.027 7.287,0.036 7.276,0.042 7.265,0.039 V 0.04 H 4.509 L 3.658,2.83 H 3.657 C 3.657,2.842 3.648,2.853 3.638,2.853 3.627,2.853 3.62,2.842 3.62,2.83 H 3.618 L 2.767,0.04 H 0.012 L 0.011,0.038 C 0,0.042 -0.011,0.036 -0.014,0.025 -0.017,0.017 -0.011,0.004 0,0 m 3.125,-0.483 0.513,1.365 0.513,-1.365 1.38,-0.099 -1.062,-0.942 0.338,-1.427 -1.169,0.786 -1.169,-0.786 0.339,1.427 -1.062,0.942 z"
             style="fill:#d25f15;fill-opacity:1;fill-rule:nonzero;stroke:none"
             id="path1113"
             inkscape:connector-curvature="0" /></g><g
           id="g1115"
           transform="translate(65.042,129.4133)"><path
             d="M 0,0 C 0.46,0.147 0.845,0.469 1.085,0.909 1.324,1.347 1.4,1.863 1.293,2.362 L 1.247,2.581 1.045,2.517 C 0.813,2.442 0.598,2.325 0.413,2.166 0.456,2.41 0.456,2.663 0.411,2.91 0.32,3.411 0.057,3.853 -0.331,4.152 l -0.17,0.133 -0.113,-0.19 C -0.868,3.665 -0.958,3.149 -0.869,2.649 -0.779,2.152 -0.518,1.714 -0.134,1.413 -0.205,1.241 -0.254,1.062 -0.277,0.878 -0.392,1.211 -0.585,1.508 -0.847,1.737 L -1.011,1.881 -1.133,1.698 C -1.412,1.285 -1.531,0.777 -1.47,0.271 c 0.063,-0.501 0.3,-0.961 0.669,-1.287 l 0.01,-0.005 c -0.109,-0.158 -0.195,-0.329 -0.256,-0.51 -0.047,0.349 -0.179,0.682 -0.391,0.966 L -1.57,-0.388 -1.725,-0.54 c -0.353,-0.345 -0.568,-0.814 -0.606,-1.322 -0.038,-0.507 0.107,-1.006 0.406,-1.406 l 0.007,-0.01 c -0.138,-0.128 -0.254,-0.279 -0.35,-0.443 0.023,0.353 -0.042,0.71 -0.193,1.033 l -0.095,0.201 -0.182,-0.115 c -0.412,-0.259 -0.714,-0.671 -0.85,-1.161 -0.134,-0.487 -0.09,-1.007 0.124,-1.464 l 0.006,-0.011 c -0.159,-0.096 -0.303,-0.216 -0.428,-0.357 0.091,0.342 0.096,0.704 0.01,1.054 l -0.054,0.219 -0.2,-0.073 c -0.453,-0.163 -0.828,-0.501 -1.056,-0.95 -0.219,-0.432 -0.278,-0.933 -0.172,-1.411 -0.059,-0.044 -0.123,-0.091 -0.189,-0.138 -0.066,0.047 -0.129,0.094 -0.189,0.138 0.106,0.478 0.047,0.979 -0.173,1.413 -0.228,0.447 -0.603,0.785 -1.056,0.948 l -0.2,0.073 -0.053,-0.219 c -0.087,-0.35 -0.081,-0.712 0.01,-1.054 -0.125,0.141 -0.269,0.261 -0.428,0.357 l 0.006,0.011 c 0.214,0.457 0.258,0.977 0.123,1.464 -0.136,0.49 -0.437,0.902 -0.849,1.161 l -0.182,0.115 -0.094,-0.201 c -0.154,-0.323 -0.217,-0.68 -0.195,-1.033 -0.096,0.165 -0.213,0.315 -0.349,0.443 l 0.007,0.01 c 0.299,0.4 0.443,0.899 0.405,1.407 -0.039,0.507 -0.253,0.976 -0.606,1.321 l -0.155,0.152 -0.132,-0.177 c -0.211,-0.284 -0.344,-0.617 -0.39,-0.966 -0.062,0.181 -0.147,0.352 -0.256,0.51 l 0.009,0.005 c 0.37,0.326 0.607,0.786 0.669,1.287 0.062,0.506 -0.058,1.014 -0.336,1.427 l -0.123,0.183 -0.163,-0.144 c -0.262,-0.229 -0.457,-0.526 -0.57,-0.859 -0.023,0.184 -0.071,0.363 -0.143,0.535 0.383,0.301 0.645,0.739 0.734,1.236 0.089,0.501 -10e-4,1.016 -0.255,1.446 l -0.113,0.19 -0.17,-0.133 c -0.387,-0.299 -0.651,-0.741 -0.741,-1.24 -0.045,-0.249 -0.045,-0.501 -0.002,-0.746 -0.186,0.159 -0.4,0.276 -0.632,0.351 l -0.202,0.064 -0.047,-0.219 c -0.105,-0.499 -0.031,-1.015 0.208,-1.453 0.24,-0.44 0.625,-0.762 1.085,-0.909 l 0.179,-0.056 c 0.018,-0.16 0.056,-0.317 0.109,-0.469 -0.254,0.173 -0.546,0.28 -0.853,0.306 l -0.21,0.018 -0.003,-0.224 c -0.006,-0.512 0.167,-1 0.487,-1.376 0.319,-0.377 0.759,-0.608 1.237,-0.65 l 0.185,-0.018 c 0.049,-0.15 0.116,-0.298 0.199,-0.431 -0.209,0.083 -0.428,0.126 -0.654,0.126 -0.081,0 -0.161,-0.005 -0.24,-0.015 l -0.209,-0.03 0.04,-0.219 c 0.094,-0.502 0.357,-0.942 0.744,-1.241 0.32,-0.248 0.702,-0.379 1.101,-0.379 0.078,0 0.157,0.004 0.234,0.014 l 0.185,0.027 c 0.079,-0.14 0.172,-0.267 0.279,-0.383 -0.299,0.05 -0.606,0.021 -0.896,-0.086 l -0.2,-0.074 0.083,-0.208 c 0.189,-0.468 0.532,-0.841 0.967,-1.048 0.242,-0.114 0.498,-0.172 0.761,-0.172 0.21,0 0.418,0.036 0.618,0.109 l 0.147,0.055 c 0.245,-0.222 0.523,-0.443 0.904,-0.722 -0.174,-0.121 -0.366,-0.254 -0.581,-0.401 l 0.371,-0.246 c 0.209,0.145 0.395,0.274 0.564,0.395 0.169,-0.121 0.354,-0.25 0.564,-0.395 l 0.37,0.246 c -0.214,0.147 -0.407,0.28 -0.58,0.401 0.381,0.279 0.658,0.5 0.903,0.722 l 0.148,-0.055 c 0.2,-0.073 0.407,-0.109 0.617,-0.109 0.264,0 0.52,0.058 0.761,0.172 0.436,0.207 0.779,0.58 0.967,1.048 l 0.083,0.208 -0.2,0.074 C -2.203,-4.979 -2.511,-4.95 -2.81,-5 c 0.108,0.115 0.201,0.243 0.279,0.383 l 0.185,-0.027 c 0.077,-0.01 0.156,-0.014 0.235,-0.014 h 0.001 c 0.398,0 0.779,0.131 1.101,0.379 0.385,0.299 0.649,0.739 0.741,1.241 l 0.041,0.219 -0.209,0.03 c -0.079,0.01 -0.16,0.015 -0.24,0.015 -0.225,0 -0.445,-0.043 -0.654,-0.126 0.083,0.133 0.15,0.281 0.2,0.431 l 0.184,0.018 c 0.479,0.042 0.918,0.273 1.238,0.65 0.319,0.376 0.493,0.864 0.486,1.376 L 0.775,-0.201 0.564,-0.219 c -0.306,-0.026 -0.598,-0.133 -0.853,-0.306 0.055,0.152 0.093,0.309 0.111,0.469 z m -10.525,0.397 c 0.039,0.317 0.165,0.61 0.362,0.847 0.134,-0.282 0.186,-0.601 0.147,-0.918 -0.039,-0.315 -0.165,-0.61 -0.362,-0.846 -0.136,0.283 -0.187,0.601 -0.147,0.917 m -0.593,2.435 c 0.058,0.314 0.201,0.6 0.41,0.821 0.118,-0.29 0.151,-0.611 0.095,-0.924 -0.057,-0.314 -0.2,-0.599 -0.41,-0.823 -0.118,0.292 -0.152,0.613 -0.095,0.926 M -11.196,0.49 c -0.268,0.135 -0.492,0.355 -0.643,0.63 -0.151,0.276 -0.218,0.59 -0.198,0.907 0.267,-0.136 0.492,-0.353 0.643,-0.63 0.15,-0.276 0.218,-0.59 0.198,-0.907 m 0.102,-2.011 c -0.201,0.238 -0.329,0.53 -0.369,0.845 0.287,-0.073 0.548,-0.238 0.75,-0.474 0.201,-0.237 0.329,-0.53 0.369,-0.844 -0.288,0.074 -0.55,0.237 -0.75,0.473 m 1.615,0.49 c 0.186,-0.246 0.298,-0.545 0.323,-0.864 0.023,-0.319 -0.045,-0.633 -0.192,-0.908 -0.186,0.245 -0.298,0.548 -0.321,0.866 -0.023,0.319 0.044,0.633 0.19,0.906 m -0.375,-2.908 c -0.243,0.187 -0.424,0.446 -0.524,0.744 0.297,-0.009 0.582,-0.11 0.825,-0.299 0.243,-0.186 0.425,-0.445 0.526,-0.744 -0.299,0.01 -0.584,0.112 -0.827,0.299 m 2.975,-0.952 c 0.263,-0.145 0.48,-0.37 0.624,-0.65 0.142,-0.283 0.199,-0.601 0.169,-0.915 -0.264,0.146 -0.48,0.374 -0.622,0.653 -0.143,0.283 -0.201,0.599 -0.171,0.912 m -1.499,0.858 c -0.084,0.305 -0.08,0.63 0.011,0.929 0.229,-0.201 0.397,-0.469 0.482,-0.776 0.085,-0.307 0.08,-0.63 -0.011,-0.93 -0.229,0.201 -0.398,0.469 -0.482,0.777 m 0.208,-1.999 c -0.274,0.129 -0.503,0.343 -0.659,0.612 0.29,0.058 0.593,0.019 0.867,-0.111 0.273,-0.13 0.502,-0.342 0.658,-0.613 -0.292,-0.057 -0.593,-0.018 -0.866,0.112 m 3.33,0.488 c 0.144,0.283 0.361,0.508 0.624,0.653 0.03,-0.313 -0.028,-0.629 -0.17,-0.912 -0.141,-0.279 -0.359,-0.507 -0.622,-0.653 -0.031,0.314 0.027,0.632 0.168,0.912 m 2.574,0.124 C -2.422,-5.689 -2.65,-5.903 -2.924,-6.032 -3.115,-6.123 -3.317,-6.17 -3.525,-6.17 c -0.089,0 -0.178,0.01 -0.265,0.026 0.157,0.271 0.384,0.483 0.658,0.613 0.273,0.13 0.576,0.169 0.866,0.111 m -0.45,1.385 c -0.085,-0.306 -0.253,-0.574 -0.482,-0.775 -0.092,0.3 -0.096,0.623 -0.012,0.929 0.085,0.307 0.254,0.576 0.483,0.777 0.091,-0.299 0.095,-0.624 0.011,-0.931 m 0.778,2.139 c 0.024,0.32 0.137,0.619 0.322,0.865 0.147,-0.273 0.214,-0.587 0.191,-0.906 -0.023,-0.318 -0.135,-0.621 -0.322,-0.866 -0.146,0.275 -0.215,0.589 -0.191,0.907 m 0.697,-2.043 c -0.242,-0.187 -0.527,-0.289 -0.826,-0.299 0.101,0.299 0.282,0.558 0.525,0.744 0.243,0.189 0.529,0.29 0.826,0.299 -0.101,-0.298 -0.282,-0.557 -0.525,-0.744 M 0.942,2.027 C 0.963,1.71 0.895,1.396 0.744,1.12 0.594,0.845 0.37,0.625 0.102,0.49 0.082,0.807 0.149,1.121 0.299,1.397 0.451,1.674 0.675,1.891 0.942,2.027 M -0.481,2.729 C -0.538,3.042 -0.503,3.363 -0.386,3.653 -0.177,3.432 -0.034,3.146 0.022,2.832 0.08,2.519 0.046,2.198 -0.072,1.906 -0.282,2.13 -0.425,2.415 -0.481,2.729 M -1.079,0.325 c -0.038,0.318 0.013,0.637 0.147,0.919 0.198,-0.237 0.324,-0.53 0.363,-0.847 0.04,-0.316 -0.013,-0.634 -0.147,-0.917 -0.197,0.236 -0.324,0.531 -0.363,0.845 m 1.078,-1.846 c -0.201,-0.236 -0.461,-0.399 -0.75,-0.473 0.041,0.314 0.168,0.607 0.369,0.844 0.202,0.236 0.464,0.401 0.751,0.474 -0.041,-0.315 -0.168,-0.607 -0.37,-0.845"
             style="fill:#d25f15;fill-opacity:1;fill-rule:nonzero;stroke:none"
             id="path1117"
             inkscape:connector-curvature="0" /></g><g
           id="g1119"
           transform="translate(68.0811,141.9885)"><path
             d="m 0,0 -0.346,0.047 c -0.046,0.006 -4.643,0.614 -8.223,0.614 h -0.003 -0.003 c -3.58,0 -8.177,-0.608 -8.223,-0.614 L -17.144,0 v -6.772 h -0.003 v -0.945 c 0,-2.853 0.265,-6.541 2.336,-9.769 0.427,-0.665 0.912,-1.278 1.493,-1.874 l -0.001,-0.001 c 0.005,-0.004 0.007,-0.007 0.012,-0.01 1.123,-1.151 2.607,-2.237 4.731,-3.496 v -0.004 c 0.001,10e-4 0.001,10e-4 0.002,10e-4 10e-4,0 10e-4,0 0.002,-10e-4 v 0.004 c 2.123,1.259 3.608,2.345 4.731,3.496 0.004,0.003 0.008,0.006 0.011,0.01 v 0.001 c 0.581,0.596 1.066,1.209 1.493,1.874 2.07,3.228 2.336,6.916 2.336,9.769 v 0.134 H 0 Z m -15.943,-0.702 c 1.447,0.171 4.7,0.516 7.371,0.516 2.67,0 5.923,-0.345 7.37,-0.516 l 0.406,-6.07 h -7.776 -7.776 z m 12.955,-16.31 c -0.402,-0.627 -0.861,-1.207 -1.416,-1.77 -1.71,-1.673 -3.629,-2.596 -4.17,-2.837 -0.541,0.241 -2.461,1.164 -4.171,2.837 -0.553,0.563 -1.013,1.143 -1.414,1.77 -1.943,3.028 -2.197,6.537 -2.199,9.266 h 0.002 l 7.784,0.46 7.783,-0.46 c -0.003,-2.728 -0.257,-6.238 -2.199,-9.266"
             style="fill:#d25f15;fill-opacity:1;fill-rule:nonzero;stroke:none"
             id="path1121"
             inkscape:connector-curvature="0" /></g><g
           id="g1123"
           transform="translate(80.3813,135.2102)"><path
             d="m 0,0 -0.77,-0.027 -0.041,0.306 0.401,0.086 v 2.493 c 0,0.455 -0.196,0.656 -0.524,0.656 -0.246,0 -0.565,-0.194 -0.868,-0.393 L -2.047,2.955 V 0.365 L -1.598,0.279 -1.638,-0.027 -2.416,0 l -0.86,-0.027 -0.04,0.306 0.49,0.086 V 5.7 L -3.12,5.649 -4.783,5.675 V 0.392 L -3.841,0.279 -3.882,-0.027 -5.208,0 -6.584,-0.027 -6.625,0.279 -5.642,0.392 V 5.675 L -6.871,5.649 -7.247,4.56 h -0.319 v 1.541 l 2.35,-0.016 2.014,0.016 0.876,0.105 h 0.279 V 3.382 l 1.194,0.827 c 1.049,0 1.22,-0.417 1.22,-1.524 V 0.365 L 0.982,0.279 0.941,-0.027 Z"
             style="fill:#d25f15;fill-opacity:1;fill-rule:nonzero;stroke:none"
             id="path1125"
             inkscape:connector-curvature="0" /></g><g
           id="g1127"
           transform="translate(84.1533,137.8508)"><path
             d="m 0,0 c 0,0.672 -0.123,1.133 -0.753,1.133 -0.5,0 -0.819,-0.496 -0.884,-1.219 z m -1.646,-0.437 c 0,-0.992 0.5,-1.699 1.36,-1.699 0.327,0 0.72,0.167 1.023,0.367 l 0.132,-0.332 c -0.393,-0.288 -0.91,-0.532 -1.434,-0.688 -0.99,0 -1.883,0.75 -1.883,2.118 0,1.29 0.729,1.979 1.85,2.239 1.081,0 1.45,-0.721 1.45,-1.638 v -0.367 z"
             style="fill:#d25f15;fill-opacity:1;fill-rule:nonzero;stroke:none"
             id="path1129"
             inkscape:connector-curvature="0" /></g><g
           id="g1131"
           transform="translate(90.6616,140.9983)"><path
             d="M 0,0 0.042,0.305 1.089,0.278 2.047,0.305 2.088,0 1.392,-0.113 V -3.67 c 0,-1.135 -0.434,-1.892 -2.063,-2.293 -1.614,0 -2.186,0.925 -2.186,2.309 v 3.541 L -3.594,0 -3.553,0.305 -2.423,0.278 -1.301,0.305 -1.261,0 -1.957,-0.113 v -3.67 c 0,-1.081 0.435,-1.701 1.368,-1.701 0.852,0 1.326,0.611 1.326,1.727 v 3.644 z"
             style="fill:#d25f15;fill-opacity:1;fill-rule:nonzero;stroke:none"
             id="path1133"
             inkscape:connector-curvature="0" /></g><g
           id="g1135"
           transform="translate(93.8535,135.2102)"><path
             d="m 0,0 -0.941,-0.027 -0.041,0.306 0.573,0.086 V 3.548 L -0.982,3.495 -1.023,3.801 -0.04,4.07 0.312,4.097 0.353,3.363 1.564,4.209 c 1.049,0 1.221,-0.374 1.221,-1.42 V 0.365 L 3.407,0.279 3.366,-0.027 2.425,0 1.639,-0.027 1.597,0.279 2.007,0.365 V 2.858 C 2.007,3.313 1.818,3.514 1.466,3.514 1.18,3.514 0.893,3.32 0.615,3.121 L 0.369,2.946 V 0.365 L 0.82,0.279 0.778,-0.027 Z"
             style="fill:#d25f15;fill-opacity:1;fill-rule:nonzero;stroke:none"
             id="path1137"
             inkscape:connector-curvature="0" /></g><g
           id="g1139"
           transform="translate(98.1357,141.2073)"><path
             d="M 0,0 0.589,0.044 0.819,0 0.86,-0.488 0.77,-0.906 0.188,-0.959 -0.033,-0.906 -0.082,-0.419 Z M 0.409,-5.997 -0.532,-6.024 -0.573,-5.718 0,-5.632 v 3.183 l -0.573,-0.053 -0.041,0.306 0.983,0.269 0.409,0.034 v -3.739 l 0.614,-0.086 -0.04,-0.306 z"
             style="fill:#d25f15;fill-opacity:1;fill-rule:nonzero;stroke:none"
             id="path1141"
             inkscape:connector-curvature="0" /></g><g
           id="g1143"
           transform="translate(101.8286,135.7503)"><path
             d="M 0,0 0.99,3.156 0.614,3.243 0.654,3.548 1.375,3.522 2.055,3.548 2.095,3.243 1.572,3.156 0.229,-0.428 -0.369,-0.689 -1.793,3.156 -2.301,3.243 -2.26,3.548 -1.319,3.522 -0.459,3.548 -0.417,3.243 -0.959,3.156 -0.066,0.602 Z"
             style="fill:#d25f15;fill-opacity:1;fill-rule:nonzero;stroke:none"
             id="path1145"
             inkscape:connector-curvature="0" /></g><g
           id="g1147"
           transform="translate(106.3716,137.8508)"><path
             d="m 0,0 c 0,0.672 -0.123,1.133 -0.753,1.133 -0.5,0 -0.819,-0.496 -0.884,-1.219 z m -1.646,-0.437 c 0,-0.992 0.5,-1.699 1.36,-1.699 0.327,0 0.721,0.167 1.023,0.367 l 0.131,-0.332 c -0.392,-0.288 -0.909,-0.532 -1.433,-0.688 -0.99,0 -1.883,0.75 -1.883,2.118 0,1.29 0.729,1.979 1.85,2.239 1.081,0 1.45,-0.721 1.45,-1.638 v -0.367 z"
             style="fill:#d25f15;fill-opacity:1;fill-rule:nonzero;stroke:none"
             id="path1149"
             inkscape:connector-curvature="0" /></g><g
           id="g1151"
           transform="translate(109.0566,138.1565)"><path
             d="M 0,0 0.934,1.221 H 1.588 V 0.349 H 0.982 C 0.786,0.304 0.426,0.017 0.205,-0.271 L 0.041,-0.48 v -2.075 l 0.86,-0.088 -0.042,-0.331 -1.187,0.028 -0.917,-0.028 -0.041,0.307 0.574,0.086 v 3.183 l -0.574,-0.053 -0.04,0.305 0.982,0.27 0.327,0.026 z"
             style="fill:#d25f15;fill-opacity:1;fill-rule:nonzero;stroke:none"
             id="path1153"
             inkscape:connector-curvature="0" /></g><g
           id="g1155"
           transform="translate(113.2236,138.802)"><path
             d="m 0,0 c -0.082,0.053 -0.327,0.191 -0.623,0.191 -0.318,0 -0.622,-0.184 -0.622,-0.514 0,-0.279 0.205,-0.453 0.574,-0.654 l 0.63,-0.339 c 0.549,-0.296 0.77,-0.628 0.77,-1.125 0,-0.786 -0.598,-1.081 -1.541,-1.299 -0.499,0 -1.031,0.261 -1.244,0.392 l -0.155,0.984 h 0.524 l 0.279,-0.723 c 0.171,-0.122 0.409,-0.218 0.671,-0.218 0.433,0 0.655,0.296 0.655,0.663 0,0.34 -0.172,0.489 -0.598,0.723 l -0.646,0.358 c -0.353,0.192 -0.689,0.524 -0.689,1.01 0,0.612 0.533,0.952 1.483,1.169 0.442,0 0.917,-0.21 1.154,-0.39 V -0.646 H 0.188 Z"
             style="fill:#d25f15;fill-opacity:1;fill-rule:nonzero;stroke:none"
             id="path1157"
             inkscape:connector-curvature="0" /></g><g
           id="g1159"
           transform="translate(115.0732,141.2073)"><path
             d="M 0,0 0.59,0.044 0.819,0 0.86,-0.488 0.77,-0.906 0.188,-0.959 l -0.22,0.053 -0.05,0.487 z M 0.41,-5.997 -0.532,-6.024 -0.572,-5.718 0,-5.632 v 3.183 l -0.572,-0.053 -0.042,0.306 0.983,0.269 0.409,0.034 V -5.632 L 1.393,-5.718 1.352,-6.024 Z"
             style="fill:#d25f15;fill-opacity:1;fill-rule:nonzero;stroke:none"
             id="path1161"
             inkscape:connector-curvature="0" /></g><g
           id="g1163"
           transform="translate(119.5439,133.1438)"><path
             d="M 0,0 V 0.872 H 0.704 L 1.515,2.188 1.187,2.083 -0.188,5.753 H -1.425 V 3.094 c 0,-0.252 0.09,-0.523 0.434,-0.523 0.237,0 0.491,0.122 0.72,0.245 L -0.132,2.519 -1.163,1.918 c -0.917,0 -1.04,0.349 -1.04,1.132 v 2.598 h -0.793 v 0.15 l 0.285,0.305 h 0.532 v 0.565 l 0.533,0.567 h 0.213 V 6.146 H 1.146 L 1.187,5.85 0.646,5.763 1.556,3.209 1.621,2.606 2.636,5.763 2.26,5.85 2.301,6.154 3.021,6.129 3.701,6.154 3.742,5.85 3.218,5.763 1.891,2.195 0.975,0 Z"
             style="fill:#d25f15;fill-opacity:1;fill-rule:nonzero;stroke:none"
             id="path1165"
             inkscape:connector-curvature="0" /></g><g
           id="g1167"
           transform="translate(126.8701,135.4895)"><path
             d="m 0,0 c 0.655,0 0.991,0.714 0.991,1.655 0,1.107 -0.499,1.849 -1.212,1.849 -0.663,0 -0.991,-0.716 -0.991,-1.665 C -1.212,0.844 -0.729,0 0,0 m 1.81,1.839 c 0,-1.299 -0.746,-2.049 -2.014,-2.267 -1.09,0 -1.827,0.899 -1.827,2.083 0,1.309 0.746,2.05 2.014,2.275 1.09,0 1.827,-0.907 1.827,-2.091"
             style="fill:#d25f15;fill-opacity:1;fill-rule:nonzero;stroke:none"
             id="path1169"
             inkscape:connector-curvature="0" /></g><g
           id="g1171"
           transform="translate(130.5215,139.2034)"><path
             d="M 0,0 H 1.023 V -0.411 H 0 V -3.628 L 0.941,-3.689 0.9,-4.02 -0.369,-3.993 -1.31,-4.02 l -0.042,0.306 0.574,0.086 v 3.217 h -0.721 v 0.149 l 0.245,0.304 h 0.476 V 0.13 c 0,0.522 0.155,0.863 0.451,1.22 L 0.359,2.178 H 1.392 V 1.481 H 0.327 L 0.172,1.245 C 0.058,1.08 0,0.827 0,0.26 Z"
             style="fill:#d25f15;fill-opacity:1;fill-rule:nonzero;stroke:none"
             id="path1173"
             inkscape:connector-curvature="0" /></g><g
           id="g1175"
           transform="translate(137.8076,135.1829)"><path
             d="M 0,0 -1.326,0.027 -2.702,0 -2.743,0.307 -1.761,0.419 V 5.702 L -2.989,5.685 -3.365,4.578 h -0.32 V 6.12 L -1.335,6.094 1.023,6.12 V 4.578 H 0.704 L 0.327,5.685 -0.901,5.702 V 0.419 L 0.041,0.307 Z"
             style="fill:#d25f15;fill-opacity:1;fill-rule:nonzero;stroke:none"
             id="path1177"
             inkscape:connector-curvature="0" /></g><g
           id="g1179"
           transform="translate(140.9102,137.8508)"><path
             d="m 0,0 c 0,0.672 -0.123,1.133 -0.754,1.133 -0.499,0 -0.818,-0.496 -0.884,-1.219 z m -1.646,-0.437 c 0,-0.992 0.5,-1.699 1.36,-1.699 0.327,0 0.721,0.167 1.022,0.367 l 0.131,-0.332 c -0.392,-0.288 -0.908,-0.532 -1.431,-0.688 -0.992,0 -1.884,0.75 -1.884,2.118 0,1.29 0.728,1.979 1.85,2.239 1.081,0 1.45,-0.721 1.45,-1.638 v -0.367 z"
             style="fill:#d25f15;fill-opacity:1;fill-rule:nonzero;stroke:none"
             id="path1181"
             inkscape:connector-curvature="0" /></g><g
           id="g1183"
           transform="translate(143.6279,135.4895)"><path
             d="M 0,0 -0.041,-0.307 -0.68,-0.279 -1.523,-0.307 -1.563,0 -0.991,0.086 0.221,1.672 -0.967,3.407 -1.475,3.494 -1.434,3.809 -0.491,3.783 0.286,3.809 0.327,3.494 0.008,3.407 0.614,2.44 0.68,2.213 1.457,3.407 1.056,3.494 1.097,3.809 1.735,3.783 2.579,3.809 2.62,3.494 2.03,3.407 0.949,2.014 2.235,0.086 2.742,0 2.701,-0.307 1.76,-0.279 0.982,-0.307 0.941,0 1.277,0.086 0.549,1.211 0.483,1.411 -0.385,0.086 Z"
             style="fill:#d25f15;fill-opacity:1;fill-rule:nonzero;stroke:none"
             id="path1185"
             inkscape:connector-curvature="0" /></g><g
           id="g1187"
           transform="translate(148.7852,137.2844)"><path
             d="m 0,0 -1.187,-0.523 c -0.124,-0.13 -0.164,-0.305 -0.164,-0.489 0,-0.444 0.238,-0.601 0.475,-0.601 0.23,0 0.426,0.149 0.532,0.227 L 0,-1.134 Z m -0.516,2.136 c 1.032,0 1.293,-0.281 1.293,-1.387 v -1.708 c 0,-0.374 0.059,-0.514 0.14,-0.654 h 0.409 l 0.033,-0.306 -1.056,-0.218 -0.254,0.673 -0.974,-0.76 c -0.705,0 -1.204,0.418 -1.204,1.117 0,0.314 0.107,0.541 0.287,0.8 L 0,0.348 v 0.436 c 0,0.524 -0.041,0.838 -0.482,0.838 -0.222,0 -0.492,-0.079 -0.672,-0.158 L -1.293,0.775 h -0.705 v 0.664 z"
             style="fill:#d25f15;fill-opacity:1;fill-rule:nonzero;stroke:none"
             id="path1189"
             inkscape:connector-curvature="0" /></g><g
           id="g1191"
           transform="translate(152.6816,138.802)"><path
             d="m 0,0 c -0.082,0.053 -0.327,0.191 -0.623,0.191 -0.318,0 -0.622,-0.184 -0.622,-0.514 0,-0.279 0.205,-0.453 0.574,-0.654 l 0.631,-0.339 c 0.548,-0.296 0.769,-0.628 0.769,-1.125 0,-0.786 -0.597,-1.081 -1.54,-1.299 -0.499,0 -1.031,0.261 -1.244,0.392 l -0.156,0.984 h 0.524 l 0.279,-0.723 c 0.172,-0.122 0.409,-0.218 0.671,-0.218 0.434,0 0.655,0.296 0.655,0.663 0,0.34 -0.172,0.489 -0.598,0.723 l -0.646,0.358 c -0.353,0.192 -0.689,0.524 -0.689,1.01 0,0.612 0.534,0.952 1.484,1.169 0.441,0 0.916,-0.21 1.153,-0.39 V -0.646 H 0.188 Z"
             style="fill:#d25f15;fill-opacity:1;fill-rule:nonzero;stroke:none"
             id="path1193"
             inkscape:connector-curvature="0" /></g><g
           id="g1195"
           transform="translate(158.0527,137.2844)"><path
             d="m 0,0 -1.187,-0.523 c -0.124,-0.13 -0.165,-0.305 -0.165,-0.489 0,-0.444 0.237,-0.601 0.475,-0.601 0.23,0 0.426,0.149 0.532,0.227 L 0,-1.134 Z m -0.517,2.136 c 1.032,0 1.294,-0.281 1.294,-1.387 v -1.708 c 0,-0.374 0.058,-0.514 0.139,-0.654 h 0.409 l 0.033,-0.306 -1.056,-0.218 -0.253,0.673 -0.975,-0.76 c -0.704,0 -1.204,0.418 -1.204,1.117 0,0.314 0.107,0.541 0.287,0.8 L 0,0.348 v 0.436 c 0,0.524 -0.042,0.838 -0.483,0.838 -0.222,0 -0.492,-0.079 -0.672,-0.158 L -1.294,0.775 h -0.705 v 0.664 z"
             style="fill:#d25f15;fill-opacity:1;fill-rule:nonzero;stroke:none"
             id="path1197"
             inkscape:connector-curvature="0" /></g><g
           id="g1199"
           transform="translate(159.3701,138.7923)"><path
             d="M 0,0 V 0.149 L 0.286,0.454 H 0.819 V 1.02 L 1.351,1.587 H 1.563 V 0.393 H 2.8 V 0 H 1.572 v -2.554 c 0,-0.253 0.09,-0.523 0.434,-0.523 0.237,0 0.418,0.087 0.646,0.21 L 2.792,-3.164 1.833,-3.73 c -0.917,0 -1.039,0.348 -1.039,1.131 V 0 Z"
             style="fill:#d25f15;fill-opacity:1;fill-rule:nonzero;stroke:none"
             id="path1201"
             inkscape:connector-curvature="0" /></g><g
           id="g1203"
           transform="translate(166.7139,139.9426)"><path
             d="m 0,0 -0.058,0.472 -0.901,-2.773 h 1.745 z m -1.09,-2.711 -0.532,-1.63 0.713,-0.112 -0.041,-0.306 -0.983,0.027 -0.876,-0.027 -0.041,0.306 0.639,0.095 2.03,5.649 0.492,0.147 2.137,-5.796 0.639,-0.095 -0.042,-0.306 -1.13,0.027 -1.08,-0.027 -0.041,0.306 0.695,0.112 -0.555,1.63 z"
             style="fill:#d25f15;fill-opacity:1;fill-rule:nonzero;stroke:none"
             id="path1205"
             inkscape:connector-curvature="0" /></g><g
           id="g1207"
           transform="translate(173.2793,136.3255)"><path
             d="m 0,0 c 0,-0.374 0.04,-0.514 0.098,-0.654 h 0.41 L 0.54,-0.96 -0.517,-1.178 -0.745,-0.471 -1.932,-1.264 c -1.082,0 -1.261,0.409 -1.261,1.421 v 2.276 l -0.574,-0.044 -0.041,0.34 0.983,0.226 0.409,0.034 V 0.086 c 0,-0.451 0.18,-0.653 0.582,-0.653 0.253,0 0.581,0.218 0.892,0.435 l 0.164,0.113 V 2.433 L -1.27,2.389 -1.311,2.729 -0.409,2.955 0,2.989 Z"
             style="fill:#d25f15;fill-opacity:1;fill-rule:nonzero;stroke:none"
             id="path1209"
             inkscape:connector-curvature="0" /></g><g
           id="g1211"
           transform="translate(176.3975,138.802)"><path
             d="m 0,0 c -0.081,0.053 -0.327,0.191 -0.621,0.191 -0.32,0 -0.623,-0.184 -0.623,-0.514 0,-0.279 0.205,-0.453 0.572,-0.654 l 0.632,-0.339 c 0.548,-0.296 0.769,-0.628 0.769,-1.125 0,-0.786 -0.597,-1.081 -1.54,-1.299 -0.499,0 -1.031,0.261 -1.244,0.392 l -0.156,0.984 h 0.524 l 0.279,-0.723 c 0.172,-0.122 0.41,-0.218 0.672,-0.218 0.433,0 0.655,0.296 0.655,0.663 0,0.34 -0.173,0.489 -0.599,0.723 l -0.646,0.358 c -0.352,0.192 -0.689,0.524 -0.689,1.01 0,0.612 0.533,0.952 1.484,1.169 0.441,0 0.917,-0.21 1.154,-0.39 V -0.646 H 0.189 Z"
             style="fill:#d25f15;fill-opacity:1;fill-rule:nonzero;stroke:none"
             id="path1213"
             inkscape:connector-curvature="0" /></g><g
           id="g1215"
           transform="translate(177.3887,138.7923)"><path
             d="M 0,0 V 0.149 L 0.286,0.454 H 0.817 V 1.02 L 1.351,1.587 H 1.563 V 0.393 H 2.8 V 0 H 1.571 v -2.554 c 0,-0.253 0.091,-0.523 0.435,-0.523 0.237,0 0.418,0.087 0.646,0.21 L 2.791,-3.164 1.833,-3.73 c -0.917,0 -1.039,0.348 -1.039,1.131 V 0 Z"
             style="fill:#d25f15;fill-opacity:1;fill-rule:nonzero;stroke:none"
             id="path1217"
             inkscape:connector-curvature="0" /></g><g
           id="g1219"
           transform="translate(181.2275,141.2073)"><path
             d="M 0,0 0.59,0.044 0.818,0 0.859,-0.488 0.77,-0.906 0.188,-0.959 -0.033,-0.906 -0.082,-0.419 Z M 0.408,-5.997 -0.532,-6.024 -0.573,-5.718 0,-5.632 v 3.183 l -0.573,-0.053 -0.041,0.306 0.982,0.269 0.409,0.034 v -3.739 l 0.615,-0.086 -0.04,-0.306 z"
             style="fill:#d25f15;fill-opacity:1;fill-rule:nonzero;stroke:none"
             id="path1221"
             inkscape:connector-curvature="0" /></g><g
           id="g1223"
           transform="translate(183.9697,135.2102)"><path
             d="m 0,0 -0.941,-0.027 -0.042,0.306 0.574,0.086 V 3.548 L -0.983,3.495 -1.023,3.801 -0.041,4.07 0.312,4.097 0.353,3.363 1.564,4.209 c 1.048,0 1.22,-0.374 1.22,-1.42 V 0.365 L 3.406,0.279 3.365,-0.027 2.424,0 1.637,-0.027 1.597,0.279 2.007,0.365 v 2.493 c 0,0.455 -0.19,0.656 -0.541,0.656 C 1.179,3.514 0.893,3.32 0.614,3.121 L 0.368,2.946 V 0.365 L 0.819,0.279 0.777,-0.027 Z"
             style="fill:#d25f15;fill-opacity:1;fill-rule:nonzero;stroke:none"
             id="path1225"
             inkscape:connector-curvature="0" /></g></g></g></g></svg>